<svg width="34" height="34" viewBox="0 0 34 34" fill="none" xmlns="http://www.w3.org/2000/svg">
<rect width="34" height="34" rx="6" fill="#FF3D00" fill-opacity="0.1"/>
<path d="M14.25 14.2502H14.2591M19.75 14.2502L14.25 19.7502M19.75 19.7502H19.7591M7.83331 14.2502C8.56266 14.2502 9.26213 14.5399 9.77786 15.0556C10.2936 15.5713 10.5833 16.2708 10.5833 17.0002C10.5833 17.7295 10.2936 18.429 9.77786 18.9447C9.26213 19.4604 8.56266 19.7502 7.83331 19.7502V21.5835C7.83331 22.0697 8.02647 22.536 8.37028 22.8799C8.7141 23.2237 9.18042 23.4168 9.66665 23.4168H24.3333C24.8195 23.4168 25.2859 23.2237 25.6297 22.8799C25.9735 22.536 26.1666 22.0697 26.1666 21.5835V19.7502C25.4373 19.7502 24.7378 19.4604 24.2221 18.9447C23.7064 18.429 23.4166 17.7295 23.4166 17.0002C23.4166 16.2708 23.7064 15.5713 24.2221 15.0556C24.7378 14.5399 25.4373 14.2502 26.1666 14.2502V12.4168C26.1666 11.9306 25.9735 11.4643 25.6297 11.1205C25.2859 10.7767 24.8195 10.5835 24.3333 10.5835H9.66665C9.18042 10.5835 8.7141 10.7767 8.37028 11.1205C8.02647 11.4643 7.83331 11.9306 7.83331 12.4168V14.2502Z" stroke="#FF3D00" stroke-width="1.5" stroke-linecap="round" stroke-linejoin="round"/>
</svg>
