<svg width="34" height="34" viewBox="0 0 34 34" fill="none" xmlns="http://www.w3.org/2000/svg">
<rect width="34" height="34" rx="6" fill="#00F2FF" fill-opacity="0.1"/>
<path d="M11.5 18.8333C11.5 21.2134 12.272 23.5293 13.7 25.4333C13.9917 25.8223 14.4261 26.0795 14.9074 26.1482C15.3887 26.217 15.8777 26.0917 16.2667 25.8C16.6557 25.5083 16.9128 25.0739 16.9816 24.5926C17.0503 24.1113 16.9251 23.6223 16.6333 23.2333C15.6813 21.964 15.1667 20.42 15.1667 18.8333M13.3333 11.5V18.8333M16.0833 11.5C18.8713 11.5718 21.5961 10.6635 23.7833 8.93333C23.9195 8.83119 24.0815 8.76899 24.251 8.7537C24.4206 8.73842 24.591 8.77064 24.7433 8.84678C24.8955 8.92291 25.0236 9.03994 25.1131 9.18475C25.2026 9.32956 25.25 9.49643 25.25 9.66667V20.6667C25.25 20.8369 25.2026 21.0038 25.1131 21.1486C25.0236 21.2934 24.8955 21.4104 24.7433 21.4866C24.591 21.5627 24.4206 21.5949 24.251 21.5796C24.0815 21.5643 23.9195 21.5021 23.7833 21.4C21.5961 19.6698 18.8713 18.7615 16.0833 18.8333H10.5833C10.0971 18.8333 9.63079 18.6402 9.28697 18.2964C8.94315 17.9525 8.75 17.4862 8.75 17V13.3333C8.75 12.8471 8.94315 12.3808 9.28697 12.037C9.63079 11.6932 10.0971 11.5 10.5833 11.5H16.0833Z" stroke="#00BFFF" stroke-width="1.83333" stroke-linecap="round" stroke-linejoin="round"/>
</svg>
